{
	"asset":{
		"generator":"Khronos glTF Blender I/O v3.5.30",
		"version":"2.0"
	},
	"extensionsUsed":[
		"KHR_materials_specular",
		"KHR_materials_ior",
		"KHR_lights_punctual"
	],
	"extensionsRequired":[
		"KHR_lights_punctual"
	],
	"extensions":{
		"KHR_lights_punctual":{
			"lights":[
				{
					"color":[
						1,
						1,
						1
					],
					"intensity":10870.28261317645,
					"type":"point",
					"name":"Point"
				},
				{
					"color":[
						1,
						1,
						1
					],
					"intensity":10870.28261317645,
					"type":"point",
					"name":"Point.001"
				},
				{
					"color":[
						1,
						1,
						1
					],
					"intensity":32610.847839529353,
					"spot":{
						"innerConeAngle":0.17950712912568534,
						"outerConeAngle":0.21118485927581787
					},
					"type":"spot",
					"name":"Spot"
				},
				{
					"color":[
						1,
						1,
						1
					],
					"intensity":32610.847839529353,
					"spot":{
						"innerConeAngle":0.17950712912568534,
						"outerConeAngle":0.21118485927581787
					},
					"type":"spot",
					"name":"Spot.001"
				},
				{
					"color":[
						1,
						1,
						1
					],
					"intensity":32610.847839529353,
					"type":"point",
					"name":"Point.002"
				},
				{
					"color":[
						1,
						1,
						1
					],
					"intensity":21740.5652263529,
					"spot":{
						"innerConeAngle":0.17950712912568534,
						"outerConeAngle":0.21118485927581787
					},
					"type":"spot",
					"name":"Spot.002"
				},
				{
					"color":[
						1,
						1,
						1
					],
					"intensity":32610.847839529353,
					"spot":{
						"innerConeAngle":0.17950712912568534,
						"outerConeAngle":0.21118485927581787
					},
					"type":"spot",
					"name":"Spot.003"
				},
				{
					"color":[
						1,
						1,
						1
					],
					"intensity":32610.847839529353,
					"spot":{
						"innerConeAngle":0.17950712912568534,
						"outerConeAngle":0.21118485927581787
					},
					"type":"spot",
					"name":"Spot.004"
				},
				{
					"color":[
						1,
						1,
						1
					],
					"intensity":32610.847839529353,
					"spot":{
						"innerConeAngle":0.17950712912568534,
						"outerConeAngle":0.21118485927581787
					},
					"type":"spot",
					"name":"Spot.005"
				}
			]
		}
	},
	"scene":0,
	"scenes":[
		{
			"extras":{
				"bc":{},
				"kitops":{},
				"C_Slots_settings":{
					"Terrain_pointer":{}
				}
			},
			"name":"Scene",
			"nodes":[
				0,
				1,
				2,
				3,
				4,
				5,
				6,
				7,
				8,
				9,
				10,
				11,
				12,
				13,
				14
			]
		}
	],
	"nodes":[
		{
			"extras":{
				"hops":{},
				"kitops":{
					"insert_target":null,
					"mirror_target":null,
					"reserved_target":null,
					"main_object":null
				}
			},
			"mesh":0,
			"name":"Plane",
			"scale":[
				3.4763998985290527,
				3.4763998985290527,
				3.4763998985290527
			]
		},
		{
			"extensions":{
				"KHR_lights_punctual":{
					"light":0
				}
			},
			"extras":{
				"hops":{},
				"kitops":{
					"insert_target":null,
					"mirror_target":null,
					"reserved_target":null,
					"main_object":null
				}
			},
			"name":"Point",
			"rotation":[
				-0.7071068286895752,
				0,
				0,
				0.7071068286895752
			],
			"translation":[
				0,
				0.03881852328777313,
				0
			]
		},
		{
			"camera":0,
			"extras":{
				"hops":{},
				"kitops":{
					"insert_target":null,
					"mirror_target":null,
					"reserved_target":null,
					"main_object":null
				}
			},
			"name":"Camera",
			"rotation":[
				0,
				-0.7071068286895752,
				-0.7071068286895752,
				3.090862321641907e-08
			],
			"translation":[
				0,
				1.9622766971588135,
				0
			]
		},
		{
			"extras":{
				"hops":{},
				"kitops":{
					"insert_target":null,
					"mirror_target":null,
					"reserved_target":null,
					"main_object":null
				}
			},
			"mesh":1,
			"name":"Plane.001",
			"scale":[
				3.4763998985290527,
				3.4763998985290527,
				3.4763998985290527
			]
		},
		{
			"extensions":{
				"KHR_lights_punctual":{
					"light":1
				}
			},
			"extras":{
				"hops":{},
				"kitops":{
					"insert_target":null,
					"mirror_target":null,
					"reserved_target":null,
					"main_object":null
				}
			},
			"name":"Point.001",
			"rotation":[
				-0.7071068286895752,
				0,
				0,
				0.7071068286895752
			],
			"translation":[
				0,
				0.03881852328777313,
				0
			]
		},
		{
			"camera":1,
			"extras":{
				"hops":{},
				"kitops":{
					"insert_target":null,
					"mirror_target":null,
					"reserved_target":null,
					"main_object":null
				}
			},
			"name":"Camera.001",
			"rotation":[
				0,
				-0.7071068286895752,
				-0.7071068286895752,
				3.090862321641907e-08
			],
			"translation":[
				0,
				1.9622766971588135,
				0
			]
		},
		{
			"extensions":{
				"KHR_lights_punctual":{
					"light":2
				}
			},
			"extras":{
				"kitops":{
					"insert_target":null,
					"mirror_target":null,
					"reserved_target":null,
					"main_object":null
				},
				"hops":{}
			},
			"name":"Spot",
			"rotation":[
				-0.6967536211013794,
				-0.12055909633636475,
				-0.6967535018920898,
				0.12055911123752594
			],
			"translation":[
				0.34533199667930603,
				0.22898390889167786,
				0
			]
		},
		{
			"extensions":{
				"KHR_lights_punctual":{
					"light":3
				}
			},
			"extras":{
				"kitops":{
					"insert_target":null,
					"mirror_target":null,
					"reserved_target":null,
					"main_object":null
				},
				"hops":{}
			},
			"name":"Spot.001",
			"rotation":[
				-0.6967535614967346,
				0.12055937945842743,
				0.6967535614967346,
				0.12055937945842743
			],
			"translation":[
				-0.34533199667930603,
				0.22898390889167786,
				0
			]
		},
		{
			"extras":{
				"hops":{},
				"kitops":{
					"insert_target":null,
					"mirror_target":null,
					"reserved_target":null,
					"main_object":null
				}
			},
			"mesh":2,
			"name":"Plane.002",
			"scale":[
				3.4763998985290527,
				3.4763998985290527,
				3.4763998985290527
			]
		},
		{
			"extensions":{
				"KHR_lights_punctual":{
					"light":4
				}
			},
			"extras":{
				"hops":{},
				"kitops":{
					"insert_target":null,
					"mirror_target":null,
					"reserved_target":null,
					"main_object":null
				}
			},
			"name":"Point.002",
			"rotation":[
				-0.7071068286895752,
				0,
				0,
				0.7071068286895752
			],
			"translation":[
				0,
				0.03881852328777313,
				0
			]
		},
		{
			"camera":2,
			"extras":{
				"hops":{},
				"kitops":{
					"insert_target":null,
					"mirror_target":null,
					"reserved_target":null,
					"main_object":null
				}
			},
			"name":"Camera.002",
			"rotation":[
				0,
				-0.7071068286895752,
				-0.7071068286895752,
				3.090862321641907e-08
			],
			"translation":[
				0,
				1.9622766971588135,
				0
			]
		},
		{
			"extensions":{
				"KHR_lights_punctual":{
					"light":5
				}
			},
			"extras":{
				"kitops":{
					"insert_target":null,
					"mirror_target":null,
					"reserved_target":null,
					"main_object":null
				},
				"hops":{}
			},
			"name":"Spot.002",
			"rotation":[
				-0.6967536211013794,
				-0.12055909633636475,
				-0.6967535018920898,
				0.12055911123752594
			],
			"translation":[
				0.34533199667930603,
				0.22898390889167786,
				0
			]
		},
		{
			"extensions":{
				"KHR_lights_punctual":{
					"light":6
				}
			},
			"extras":{
				"kitops":{
					"insert_target":null,
					"mirror_target":null,
					"reserved_target":null,
					"main_object":null
				},
				"hops":{}
			},
			"name":"Spot.003",
			"rotation":[
				-0.6967535614967346,
				0.12055937945842743,
				0.6967535614967346,
				0.12055937945842743
			],
			"translation":[
				-0.34533199667930603,
				0.22898390889167786,
				0
			]
		},
		{
			"extensions":{
				"KHR_lights_punctual":{
					"light":7
				}
			},
			"extras":{
				"kitops":{
					"insert_target":null,
					"mirror_target":null,
					"reserved_target":null,
					"main_object":null
				},
				"hops":{}
			},
			"name":"Spot.004",
			"rotation":[
				0,
				-0.17049632966518402,
				-0.9853583574295044,
				1.287211581768588e-08
			],
			"translation":[
				0,
				0.22898390889167786,
				0.34533199667930603
			]
		},
		{
			"extensions":{
				"KHR_lights_punctual":{
					"light":8
				}
			},
			"extras":{
				"kitops":{
					"insert_target":null,
					"mirror_target":null,
					"reserved_target":null,
					"main_object":null
				},
				"hops":{}
			},
			"name":"Spot.005",
			"rotation":[
				-0.9853582978248596,
				0,
				0,
				0.17049670219421387
			],
			"translation":[
				0,
				0.22898390889167786,
				-0.34533199667930603
			]
		}
	],
	"cameras":[
		{
			"name":"Camera",
			"orthographic":{
				"xmag":3,
				"ymag":3,
				"zfar":1000,
				"znear":0.10000000149011612
			},
			"type":"orthographic"
		},
		{
			"name":"Camera.001",
			"orthographic":{
				"xmag":3,
				"ymag":3,
				"zfar":1000,
				"znear":0.10000000149011612
			},
			"type":"orthographic"
		},
		{
			"name":"Camera.002",
			"orthographic":{
				"xmag":3,
				"ymag":3,
				"zfar":1000,
				"znear":0.10000000149011612
			},
			"type":"orthographic"
		}
	],
	"materials":[
		{
			"doubleSided":true,
			"extensions":{
				"KHR_materials_specular":{
					"specularColorFactor":[
						2.371357614441398,
						2.371357614441398,
						2.371357614441398
					]
				},
				"KHR_materials_ior":{
					"ior":1.4500000476837158
				}
			},
			"name":"black",
			"pbrMetallicRoughness":{
				"baseColorFactor":[
					0,
					0,
					0,
					1
				],
				"metallicFactor":0
			}
		}
	],
	"meshes":[
		{
			"name":"Plane",
			"primitives":[
				{
					"attributes":{
						"POSITION":0,
						"TEXCOORD_0":1,
						"NORMAL":2,
						"TANGENT":3
					},
					"indices":4,
					"material":0
				}
			]
		},
		{
			"name":"Plane.001",
			"primitives":[
				{
					"attributes":{
						"POSITION":5,
						"TEXCOORD_0":6,
						"NORMAL":7,
						"TANGENT":8
					},
					"indices":4,
					"material":0
				}
			]
		},
		{
			"name":"Plane.002",
			"primitives":[
				{
					"attributes":{
						"POSITION":9,
						"TEXCOORD_0":10,
						"NORMAL":11,
						"TANGENT":12
					},
					"indices":4,
					"material":0
				}
			]
		}
	],
	"accessors":[
		{
			"bufferView":0,
			"componentType":5126,
			"count":4,
			"max":[
				1,
				0,
				1
			],
			"min":[
				-1,
				0,
				-1
			],
			"type":"VEC3"
		},
		{
			"bufferView":1,
			"componentType":5126,
			"count":4,
			"type":"VEC2"
		},
		{
			"bufferView":2,
			"componentType":5126,
			"count":4,
			"type":"VEC3"
		},
		{
			"bufferView":3,
			"componentType":5126,
			"count":4,
			"type":"VEC4"
		},
		{
			"bufferView":4,
			"componentType":5123,
			"count":6,
			"type":"SCALAR"
		},
		{
			"bufferView":5,
			"componentType":5126,
			"count":4,
			"max":[
				1,
				0,
				1
			],
			"min":[
				-1,
				0,
				-1
			],
			"type":"VEC3"
		},
		{
			"bufferView":6,
			"componentType":5126,
			"count":4,
			"type":"VEC2"
		},
		{
			"bufferView":7,
			"componentType":5126,
			"count":4,
			"type":"VEC3"
		},
		{
			"bufferView":8,
			"componentType":5126,
			"count":4,
			"type":"VEC4"
		},
		{
			"bufferView":9,
			"componentType":5126,
			"count":4,
			"max":[
				1,
				0,
				1
			],
			"min":[
				-1,
				0,
				-1
			],
			"type":"VEC3"
		},
		{
			"bufferView":10,
			"componentType":5126,
			"count":4,
			"type":"VEC2"
		},
		{
			"bufferView":11,
			"componentType":5126,
			"count":4,
			"type":"VEC3"
		},
		{
			"bufferView":12,
			"componentType":5126,
			"count":4,
			"type":"VEC4"
		}
	],
	"bufferViews":[
		{
			"buffer":0,
			"byteLength":48,
			"byteOffset":0,
			"target":34962
		},
		{
			"buffer":0,
			"byteLength":32,
			"byteOffset":48,
			"target":34962
		},
		{
			"buffer":0,
			"byteLength":48,
			"byteOffset":80,
			"target":34962
		},
		{
			"buffer":0,
			"byteLength":64,
			"byteOffset":128,
			"target":34962
		},
		{
			"buffer":0,
			"byteLength":12,
			"byteOffset":192,
			"target":34963
		},
		{
			"buffer":0,
			"byteLength":48,
			"byteOffset":204,
			"target":34962
		},
		{
			"buffer":0,
			"byteLength":32,
			"byteOffset":252,
			"target":34962
		},
		{
			"buffer":0,
			"byteLength":48,
			"byteOffset":284,
			"target":34962
		},
		{
			"buffer":0,
			"byteLength":64,
			"byteOffset":332,
			"target":34962
		},
		{
			"buffer":0,
			"byteLength":48,
			"byteOffset":396,
			"target":34962
		},
		{
			"buffer":0,
			"byteLength":32,
			"byteOffset":444,
			"target":34962
		},
		{
			"buffer":0,
			"byteLength":48,
			"byteOffset":476,
			"target":34962
		},
		{
			"buffer":0,
			"byteLength":64,
			"byteOffset":524,
			"target":34962
		}
	],
	"buffers":[
		{
			"byteLength":588,
			"uri":"light_texture-efd07e48c99dca23f906c37d45695955.bin"
		}
	]
}
