{
	"asset":{
		"generator":"Khronos glTF Blender I/O v3.5.30",
		"version":"2.0"
	},
	"extensionsUsed":[
		"KHR_materials_specular",
		"KHR_materials_ior"
	],
	"scene":0,
	"scenes":[
		{
			"extras":{
				"bc":{},
				"kitops":{},
				"C_Slots_settings":{
					"Terrain_pointer":{}
				}
			},
			"name":"Scene",
			"nodes":[
				0,
				1,
				2,
				3,
				4
			]
		}
	],
	"nodes":[
		{
			"extras":{
				"hops":{},
				"kitops":{
					"insert_target":null,
					"mirror_target":null,
					"reserved_target":null,
					"main_object":null
				}
			},
			"name":"Sphere",
			"scale":[
				0.18315193057060242,
				0.18315193057060242,
				0.18315193057060242
			]
		},
		{
			"extras":{
				"hops":{},
				"kitops":{
					"insert_target":null,
					"mirror_target":null,
					"reserved_target":null,
					"main_object":null
				}
			},
			"name":"Field"
		},
		{
			"extras":{
				"hops":{},
				"kitops":{
					"insert_target":null,
					"mirror_target":null,
					"reserved_target":null,
					"main_object":null
				}
			},
			"mesh":0,
			"name":"Icosphere",
			"scale":[
				0.6834352612495422,
				0.6834352612495422,
				0.6834352612495422
			],
			"translation":[
				0,
				0,
				8.599056243896484
			]
		},
		{
			"camera":0,
			"extras":{
				"hops":{},
				"kitops":{
					"insert_target":null,
					"mirror_target":null,
					"reserved_target":null,
					"main_object":null
				}
			},
			"name":"Camera",
			"rotation":[
				0,
				0.7071068286895752,
				0,
				0.7071068286895752
			],
			"translation":[
				10.026894569396973,
				0,
				0
			]
		},
		{
			"extras":{
				"hops":{},
				"kitops":{
					"insert_target":null,
					"mirror_target":null,
					"reserved_target":null,
					"main_object":null
				}
			},
			"mesh":1,
			"name":"Plane",
			"rotation":[
				0,
				0,
				-0.7071068286895752,
				0.7071068286895752
			],
			"scale":[
				10.158790588378906,
				10.158790588378906,
				10.158790588378906
			],
			"translation":[
				-7.659772872924805,
				0,
				0
			]
		}
	],
	"cameras":[
		{
			"name":"Camera",
			"orthographic":{
				"xmag":3.500000238418579,
				"ymag":3.500000238418579,
				"zfar":1000,
				"znear":0.10000000149011612
			},
			"type":"orthographic"
		}
	],
	"materials":[
		{
			"doubleSided":true,
			"emissiveFactor":[
				1,
				1,
				1
			],
			"extensions":{
				"KHR_materials_specular":{
					"specularColorFactor":[
						0,
						0,
						0
					]
				},
				"KHR_materials_ior":{
					"ior":1.4500000476837158
				}
			},
			"name":"Material.001",
			"pbrMetallicRoughness":{
				"baseColorFactor":[
					0.800000011920929,
					0.800000011920929,
					0.800000011920929,
					1
				],
				"metallicFactor":0,
				"roughnessFactor":0
			}
		},
		{
			"doubleSided":true,
			"name":"Material",
			"pbrMetallicRoughness":{}
		}
	],
	"meshes":[
		{
			"name":"Icosphere.002",
			"primitives":[
				{
					"attributes":{
						"POSITION":0,
						"TEXCOORD_0":1,
						"NORMAL":2,
						"TANGENT":3
					},
					"indices":4,
					"material":0
				}
			]
		},
		{
			"name":"Plane",
			"primitives":[
				{
					"attributes":{
						"POSITION":5,
						"TEXCOORD_0":6,
						"NORMAL":7,
						"TANGENT":8
					},
					"indices":9,
					"material":1
				}
			]
		}
	],
	"accessors":[
		{
			"bufferView":0,
			"componentType":5126,
			"count":960,
			"max":[
				0.9231224656105042,
				0.9303051233291626,
				0.9248635768890381
			],
			"min":[
				-0.9231224656105042,
				-0.9303051233291626,
				-0.9248635768890381
			],
			"type":"VEC3"
		},
		{
			"bufferView":1,
			"componentType":5126,
			"count":960,
			"type":"VEC2"
		},
		{
			"bufferView":2,
			"componentType":5126,
			"count":960,
			"type":"VEC3"
		},
		{
			"bufferView":3,
			"componentType":5126,
			"count":960,
			"type":"VEC4"
		},
		{
			"bufferView":4,
			"componentType":5123,
			"count":1440,
			"type":"SCALAR"
		},
		{
			"bufferView":5,
			"componentType":5126,
			"count":4,
			"max":[
				1,
				0,
				1
			],
			"min":[
				-1,
				0,
				-1
			],
			"type":"VEC3"
		},
		{
			"bufferView":6,
			"componentType":5126,
			"count":4,
			"type":"VEC2"
		},
		{
			"bufferView":7,
			"componentType":5126,
			"count":4,
			"type":"VEC3"
		},
		{
			"bufferView":8,
			"componentType":5126,
			"count":4,
			"type":"VEC4"
		},
		{
			"bufferView":9,
			"componentType":5123,
			"count":6,
			"type":"SCALAR"
		}
	],
	"bufferViews":[
		{
			"buffer":0,
			"byteLength":11520,
			"byteOffset":0,
			"target":34962
		},
		{
			"buffer":0,
			"byteLength":7680,
			"byteOffset":11520,
			"target":34962
		},
		{
			"buffer":0,
			"byteLength":11520,
			"byteOffset":19200,
			"target":34962
		},
		{
			"buffer":0,
			"byteLength":15360,
			"byteOffset":30720,
			"target":34962
		},
		{
			"buffer":0,
			"byteLength":2880,
			"byteOffset":46080,
			"target":34963
		},
		{
			"buffer":0,
			"byteLength":48,
			"byteOffset":48960,
			"target":34962
		},
		{
			"buffer":0,
			"byteLength":32,
			"byteOffset":49008,
			"target":34962
		},
		{
			"buffer":0,
			"byteLength":48,
			"byteOffset":49040,
			"target":34962
		},
		{
			"buffer":0,
			"byteLength":64,
			"byteOffset":49088,
			"target":34962
		},
		{
			"buffer":0,
			"byteLength":12,
			"byteOffset":49152,
			"target":34963
		}
	],
	"buffers":[
		{
			"byteLength":49164,
			"uri":"particles-c2bbf17ae57b24afdd16ff62cfe3ad1f.bin"
		}
	]
}
